HIERARCHY
ROOT Hips
{
	OFFSET -0.001795 -0.223333 0.028219
	CHANNELS 6 Xposition Yposition Zposition Zrotation Yrotation Xrotation 
	JOINT LeftUpLeg
	{
		OFFSET 0.069520 -0.091406 -0.006815
		CHANNELS 3 Zrotation Yrotation Xrotation
		JOINT LeftLeg
		{
			OFFSET 0.034277 -0.375199 -0.004496
			CHANNELS 3 Zrotation Yrotation Xrotation
			JOINT LeftFoot
			{
				OFFSET -0.013596 -0.397961 -0.043693
				CHANNELS 3 Zrotation Yrotation Xrotation
				JOINT LeftToe
				{
					OFFSET 0.026358 -0.055791 0.119288
					CHANNELS 3 Zrotation Yrotation Xrotation
					End Site
					{
						OFFSET 0.000000 0.000000 0.000000
					}
				}
			}
		}
	}
	JOINT RightUpLeg
	{
		OFFSET -0.067670 -0.090522 -0.004320
		CHANNELS 3 Zrotation Yrotation Xrotation
		JOINT RightLeg
		{
			OFFSET -0.038290 -0.382569 -0.008850
			CHANNELS 3 Zrotation Yrotation Xrotation
			JOINT RightFoot
			{
				OFFSET 0.015774 -0.398415 -0.042312
				CHANNELS 3 Zrotation Yrotation Xrotation
				JOINT RightToe
				{
					OFFSET -0.025372 -0.048144 0.123348
					CHANNELS 3 Zrotation Yrotation Xrotation
					End Site
					{
						OFFSET 0.000000 0.000000 0.000000
					}
				}
			}
		}
	}
	JOINT Spine
	{
		OFFSET -0.002533 0.108963 -0.026696
		CHANNELS 3 Zrotation Yrotation Xrotation
		JOINT Spine1
		{
			OFFSET 0.005487 0.135180 0.001092
			CHANNELS 3 Zrotation Yrotation Xrotation
			JOINT Spine2
			{
				OFFSET 0.001457 0.052922 0.025425
				CHANNELS 3 Zrotation Yrotation Xrotation
				JOINT Neck
				{
					OFFSET -0.002778 0.213870 -0.042857
					CHANNELS 3 Zrotation Yrotation Xrotation
					JOINT Head
					{
						OFFSET 0.005152 0.064970 0.051349
						CHANNELS 3 Zrotation Yrotation Xrotation
						End Site
						{
							OFFSET 0.000000 0.000000 0.000000
						}
					}
				}
				JOINT LeftShoulder
				{
					OFFSET 0.078845 0.121749 -0.034090
					CHANNELS 3 Zrotation Yrotation Xrotation
					JOINT LeftArm
					{
						OFFSET 0.090977 0.030469 -0.008868
						CHANNELS 3 Zrotation Yrotation Xrotation
						JOINT LeftForeArm
						{
							OFFSET 0.259612 -0.012772 -0.027456
							CHANNELS 3 Zrotation Yrotation Xrotation
							JOINT LeftHand
							{
								OFFSET 0.249234 0.008986 -0.001171
								CHANNELS 3 Zrotation Yrotation Xrotation
								End Site
								{
									OFFSET 0.000000 0.000000 0.000000
								}
							}
						}
					}
				}
				JOINT RightShoulder
				{
					OFFSET -0.081759 0.118833 -0.038615
					CHANNELS 3 Zrotation Yrotation Xrotation
					JOINT RightArm
					{
						OFFSET -0.096012 0.032551 -0.009143
						CHANNELS 3 Zrotation Yrotation Xrotation
						JOINT RightForeArm
						{
							OFFSET -0.253742 -0.013329 -0.021401
							CHANNELS 3 Zrotation Yrotation Xrotation
							JOINT RightHand
							{
								OFFSET -0.255298 0.007772 -0.005559
								CHANNELS 3 Zrotation Yrotation Xrotation
								End Site
								{
									OFFSET 0.000000 0.000000 0.000000
								}
							}
						}
					}
				}
			}
		}
	}
}
MOTION
Frames: 10
Frame Time: 0.050000
0.000000 0.919113 0.000000 -0.981031 -1.902359 2.622536 11.372093 -0.154866 0.622451 -2.541436 0.322072 -3.081865 5.050777 11.833225 6.863007 0.000000 0.000000 0.000000 -8.808780 0.352209 -2.006143 1.451785 -0.095205 1.859936 -3.061161 -8.802966 3.458832 0.000000 0.000000 0.000000 4.968646 -0.053284 -0.366965 -2.714887 1.271131 -3.120382 -3.535177 5.715707 9.048026 8.802333 -4.292028 -13.561141 0.000000 0.000000 0.000000 -16.385835 -4.926717 -0.121593 -52.738948 0.135187 -6.564109 -3.516017 -18.114077 1.112116 0.000000 0.000000 0.000000 17.358252 -3.003294 -1.899235 60.317155 2.949101 -4.803229 -1.246445 17.281809 0.600427 0.000000 0.000000 0.000000
0.000921 0.920451 0.000991 -1.086691 -1.700790 2.925873 11.789385 -0.186978 1.431547 -2.683391 0.354678 -5.050008 5.346326 12.514980 7.921610 0.000000 0.000000 0.000000 -8.740197 0.378195 -3.079262 0.823788 0.021514 3.152986 -2.768908 -8.386604 4.262625 0.000000 0.000000 0.000000 5.544920 -0.039379 -0.675743 -3.477089 1.611137 -3.009984 -4.124715 6.529316 8.466308 9.644453 -4.709842 -13.697013 0.000000 0.000000 0.000000 -16.480912 -4.922001 -0.395158 -51.127058 1.432474 -6.754140 -4.144850 -20.742268 1.328254 0.000000 0.000000 0.000000 17.984556 -3.960030 -2.240463 60.230701 1.472415 -5.485896 -0.427754 18.599337 0.801210 0.000000 0.000000 0.000000
0.001873 0.919632 0.001883 -0.926811 -1.109662 2.535144 11.786301 -0.188588 0.808497 -3.115910 0.368199 -3.342479 5.464140 12.586670 6.810643 0.000000 0.000000 0.000000 -8.892088 0.348027 -2.669523 1.431475 -0.051498 3.459348 -3.435673 -9.732137 3.841448 0.000000 0.000000 0.000000 5.102803 -0.047515 -0.453818 -2.410815 1.141852 -3.725074 -4.805248 7.145162 8.838253 10.268439 -5.086918 -13.532920 0.000000 0.000000 0.000000 -15.421409 -5.627397 -0.124519 -50.404142 1.243479 -6.606977 -5.849637 -21.138452 1.624190 0.000000 0.000000 0.000000 18.641029 -3.613930 -1.833482 58.638502 2.060873 -5.190525 -0.718852 19.154133 0.817508 0.000000 0.000000 0.000000
0.002670 0.919963 0.002822 -0.819493 -0.737476 2.467386 12.168330 -0.205373 0.581750 -4.193211 0.454621 -2.792763 5.446008 12.429017 5.918611 0.000000 0.000000 0.000000 -9.023877 0.345596 -2.976046 1.377966 -0.025745 4.191325 -3.630227 -10.098293 3.600431 0.000000 0.000000 0.000000 5.280698 -0.023062 -0.753882 -3.183421 1.490349 -2.965900 -4.556576 7.232442 8.171035 10.223016 -5.469136 -11.538771 0.000000 0.000000 0.000000 -14.234921 -5.880175 0.073652 -49.556101 2.322901 -6.862769 -6.512054 -25.512185 2.050856 0.000000 0.000000 0.000000 17.609013 -3.332456 -1.593290 58.629339 2.223105 -4.998150 0.120195 24.040839 1.274830 0.000000 0.000000 0.000000
0.003353 0.919265 0.003689 -0.952801 -0.254436 2.070840 12.562452 -0.213252 0.254058 -4.731815 0.508787 -1.170004 5.058646 11.635970 5.270712 0.000000 0.000000 0.000000 -9.209472 0.322301 -2.828684 1.793020 -0.065758 5.106617 -4.175574 -11.290947 3.513649 0.000000 0.000000 0.000000 5.391920 -0.056397 -0.314313 -2.982501 1.403532 -3.519348 -4.791215 7.793071 8.671726 10.193512 -5.388211 -11.560663 0.000000 0.000000 0.000000 -13.917354 -5.463044 -0.229954 -47.994978 1.954899 -6.484186 -8.202578 -30.331647 2.787144 0.000000 0.000000 0.000000 17.272456 -4.188347 -1.870085 56.374431 2.456480 -4.801167 5.461960 31.982172 3.391523 0.000000 0.000000 0.000000
0.003786 0.918139 0.004183 -1.163025 -0.219214 2.258100 12.846016 -0.224479 0.176675 -5.239213 0.560265 -1.029036 5.417516 12.343991 5.608141 0.000000 0.000000 0.000000 -9.453682 0.339655 -3.548704 2.259141 -0.110449 6.392080 -4.345008 -11.641026 3.370749 0.000000 0.000000 0.000000 4.983201 -0.003839 -0.913354 -2.656849 1.259789 -3.778618 -4.328977 8.705003 9.758813 10.810037 -5.896454 -11.134854 0.000000 0.000000 0.000000 -13.002936 -4.918719 -0.460099 -47.624402 2.162135 -6.623549 -10.013441 -38.567624 4.022990 0.000000 0.000000 0.000000 16.286858 -4.130316 -1.640974 54.329779 4.341259 -3.915420 12.107219 41.929174 7.493191 0.000000 0.000000 0.000000
0.003803 0.916722 0.003949 -1.381776 -0.276212 2.125452 12.722429 -0.195378 -0.889281 -5.462058 0.609376 0.792730 6.029827 13.345171 4.950124 0.000000 0.000000 0.000000 -9.394119 0.356128 -4.566818 2.776954 -0.156391 8.810217 -4.237831 -11.116382 2.050356 0.000000 0.000000 0.000000 4.963090 -0.027470 -0.604942 -2.885031 1.360178 -3.592293 -3.945207 8.921671 10.263395 10.385585 -5.709269 -10.681872 0.000000 0.000000 0.000000 -12.571489 -3.406532 -1.071061 -46.524017 3.786320 -7.102606 -14.361335 -51.398625 7.364642 0.000000 0.000000 0.000000 15.558543 -3.368187 -1.203160 52.775099 6.894992 -2.795515 23.712578 56.170079 17.446230 0.000000 0.000000 0.000000
0.003505 0.915196 0.002945 -1.669695 0.385739 2.521451 13.069111 -0.196117 -2.678022 -6.084575 0.720848 3.326046 6.130153 13.368011 3.789190 0.000000 0.000000 0.000000 -9.401646 0.388777 -6.764866 3.375593 -0.250709 12.138917 -4.584510 -11.855185 1.691492 0.000000 0.000000 0.000000 4.748850 -0.057110 -0.317964 -2.585386 1.233079 -3.377930 -3.931205 9.451922 10.696230 11.226544 -6.097419 -11.296994 0.000000 0.000000 0.000000 -11.564759 -2.153026 -1.564890 -44.331442 4.581217 -7.024948 -25.050066 -63.498955 15.671014 0.000000 0.000000 0.000000 15.104081 -2.706366 -0.693861 49.937737 11.003291 -1.142267 41.304065 71.537951 37.822091 0.000000 0.000000 0.000000
0.003242 0.914091 0.001345 -1.633244 0.497526 2.983191 12.892016 -0.172236 -4.703009 -6.779562 0.891578 6.367229 6.973752 14.680756 1.769857 0.000000 0.000000 0.000000 -9.975936 0.408413 -9.069703 3.875692 -0.352797 15.275419 -4.516522 -11.541429 0.893642 0.000000 0.000000 0.000000 4.444109 -0.110484 0.306770 -2.326279 1.118711 -3.550820 -3.693291 10.819611 10.675153 11.558548 -6.230338 -11.223544 0.000000 0.000000 0.000000 -10.315973 -1.287944 -1.878873 -42.729409 3.812547 -6.468685 -48.090445 -73.056539 35.764791 0.000000 0.000000 0.000000 13.748868 -1.826747 -0.051567 47.336439 17.169395 1.270066 83.142160 82.240807 85.913602 0.000000 0.000000 0.000000
0.003069 0.911512 0.000005 -1.626420 1.592296 3.792483 13.456206 -0.147895 -7.937571 -7.571293 1.103890 9.968557 6.938336 14.458723 0.636661 0.000000 0.000000 0.000000 -10.168479 0.408984 -11.644576 4.104337 -0.467403 18.805647 -5.378725 -13.491040 -0.023439 0.000000 0.000000 0.000000 4.704824 -0.166739 0.723703 -2.336035 1.128738 -3.535951 -3.760604 11.814678 10.262377 11.964014 -6.190747 -11.857673 0.000000 0.000000 0.000000 -9.758717 -0.615443 -2.253618 -41.805896 3.869367 -6.266392 -94.953462 -77.220520 80.250669 0.000000 0.000000 0.000000 11.744385 -0.712218 0.621602 45.044712 24.835640 4.237344 176.439235 81.919674 -170.834953 0.000000 0.000000 0.000000
